<svg xmlns="http://www.w3.org/2000/svg" viewBox="0 0 1200 900" width="1200" height="900" role="img" aria-label="Маникюр">
  <defs>
    <linearGradient id="bg" x1="0" y1="0" x2="1" y2="1">
      <stop offset="0%" stop-color="#fff1f8"/><stop offset="30%" stop-color="#ffd3e8"/><stop offset="100%" stop-color="#ff9fc9"/>
    </linearGradient>
    <linearGradient id="stripes" x1="0" y1="0" x2="1" y2="1">
      <stop offset="0%" stop-color="#ffffff" stop-opacity=".55"/><stop offset="100%" stop-color="#ffffff" stop-opacity="0"/>
    </linearGradient>
    <pattern id="candy" width="64" height="64" patternTransform="rotate(38)" patternUnits="userSpaceOnUse">
      <rect width="64" height="64" fill="none"/>
      <rect width="26" height="64" fill="#ffffff" opacity=".16"/>
    </pattern>
    <filter id="soft"><feGaussianBlur stdDeviation="26"/></filter>
  </defs>
  <rect width="1200" height="900" fill="url(#bg)"/>
  <g filter="url(#soft)"><ellipse cx="1196" cy="638" rx="306" ry="287" fill="#f7b8d8" opacity="0.48"/><ellipse cx="606" cy="439" rx="310" ry="226" fill="#f7b8d8" opacity="0.26"/><ellipse cx="1062" cy="83" rx="433" ry="464" fill="#ff9fc9" opacity="0.45"/><ellipse cx="349" cy="686" rx="287" ry="279" fill="#fff1f8" opacity="0.42"/><ellipse cx="1192" cy="671" rx="360" ry="323" fill="#fff1f8" opacity="0.34"/><ellipse cx="775" cy="421" rx="265" ry="265" fill="#fff1f8" opacity="0.32"/><ellipse cx="533" cy="754" rx="449" ry="318" fill="#f7b8d8" opacity="0.49"/></g>
  <rect width="1200" height="900" fill="url(#candy)"/>
  <rect width="1200" height="900" fill="url(#stripes)"/>
  <circle cx="990" cy="62" r="42" fill="#fff" opacity="0.20"/><circle cx="530" cy="539" r="35" fill="#fff" opacity="0.17"/><circle cx="275" cy="8" r="44" fill="#fff" opacity="0.43"/><circle cx="527" cy="102" r="45" fill="#fff" opacity="0.38"/><circle cx="712" cy="258" r="20" fill="#fff" opacity="0.50"/><circle cx="809" cy="213" r="28" fill="#fff" opacity="0.23"/><circle cx="833" cy="125" r="32" fill="#fff" opacity="0.14"/><circle cx="20" cy="894" r="38" fill="#fff" opacity="0.39"/><circle cx="106" cy="432" r="38" fill="#fff" opacity="0.47"/><circle cx="1055" cy="767" r="17" fill="#fff" opacity="0.49"/><circle cx="331" cy="6" r="30" fill="#fff" opacity="0.38"/><circle cx="143" cy="283" r="36" fill="#fff" opacity="0.38"/><circle cx="968" cy="379" r="29" fill="#fff" opacity="0.45"/><circle cx="541" cy="876" r="29" fill="#fff" opacity="0.17"/><circle cx="617" cy="41" r="44" fill="#fff" opacity="0.20"/><circle cx="865" cy="814" r="45" fill="#fff" opacity="0.37"/><circle cx="361" cy="177" r="19" fill="#fff" opacity="0.38"/><circle cx="173" cy="708" r="20" fill="#fff" opacity="0.20"/><circle cx="711" cy="725" r="46" fill="#fff" opacity="0.27"/><circle cx="281" cy="657" r="16" fill="#fff" opacity="0.27"/><circle cx="533" cy="130" r="44" fill="#fff" opacity="0.40"/><circle cx="484" cy="655" r="23" fill="#fff" opacity="0.47"/><circle cx="32" cy="223" r="44" fill="#fff" opacity="0.42"/><circle cx="696" cy="85" r="10" fill="#fff" opacity="0.42"/><circle cx="1116" cy="871" r="38" fill="#fff" opacity="0.13"/><circle cx="612" cy="839" r="36" fill="#fff" opacity="0.37"/><circle cx="666" cy="405" r="43" fill="#fff" opacity="0.33"/><circle cx="1078" cy="513" r="12" fill="#fff" opacity="0.23"/><circle cx="650" cy="176" r="35" fill="#fff" opacity="0.40"/><circle cx="558" cy="465" r="8" fill="#fff" opacity="0.14"/><circle cx="945" cy="659" r="20" fill="#fff" opacity="0.23"/><circle cx="561" cy="396" r="18" fill="#fff" opacity="0.40"/><circle cx="467" cy="364" r="10" fill="#fff" opacity="0.46"/><circle cx="204" cy="445" r="17" fill="#fff" opacity="0.26"/>
  <g transform="translate(216,792) scale(1.00)" fill="#fff" opacity="0.7"><ellipse cx="-70" cy="10" rx="80" ry="44"/><ellipse cx="0" cy="-18" rx="70" ry="56"/><ellipse cx="74" cy="12" rx="66" ry="40"/></g><g transform="translate(744,846) scale(1.35)" fill="#fff" opacity="0.7"><ellipse cx="-70" cy="10" rx="80" ry="44"/><ellipse cx="0" cy="-18" rx="70" ry="56"/><ellipse cx="74" cy="12" rx="66" ry="40"/></g><g transform="translate(1104,756) scale(0.80)" fill="#fff" opacity="0.7"><ellipse cx="-70" cy="10" rx="80" ry="44"/><ellipse cx="0" cy="-18" rx="70" ry="56"/><ellipse cx="74" cy="12" rx="66" ry="40"/></g>
  <path d="M 245 620 Q 245 639 265 639 Q 245 639 245 659 Q 245 639 226 639 Q 245 639 245 620 Z" fill="#fff" opacity="0.57"/><path d="M 962 493 Q 962 519 987 519 Q 962 519 962 544 Q 962 519 936 519 Q 962 519 962 493 Z" fill="#fff" opacity="0.69"/><path d="M 750 615 Q 750 636 771 636 Q 750 636 750 656 Q 750 636 729 636 Q 750 636 750 615 Z" fill="#fff" opacity="0.73"/><path d="M 1023 511 Q 1023 535 1048 535 Q 1023 535 1023 560 Q 1023 535 999 535 Q 1023 535 1023 511 Z" fill="#fff" opacity="0.65"/><path d="M 979 634 Q 979 657 1001 657 Q 979 657 979 679 Q 979 657 956 657 Q 979 657 979 634 Z" fill="#fff" opacity="0.48"/><path d="M 647 461 Q 647 482 668 482 Q 647 482 647 503 Q 647 482 626 482 Q 647 482 647 461 Z" fill="#fff" opacity="0.80"/><path d="M 510 738 Q 510 758 530 758 Q 510 758 510 777 Q 510 758 490 758 Q 510 758 510 738 Z" fill="#fff" opacity="0.67"/><path d="M 724 379 Q 724 402 747 402 Q 724 402 724 425 Q 724 402 701 402 Q 724 402 724 379 Z" fill="#fff" opacity="0.71"/><path d="M 241 272 Q 241 290 259 290 Q 241 290 241 309 Q 241 290 222 290 Q 241 290 241 272 Z" fill="#fff" opacity="0.82"/><path d="M 649 624 Q 649 657 682 657 Q 649 657 649 690 Q 649 657 616 657 Q 649 657 649 624 Z" fill="#fff" opacity="0.70"/><path d="M 772 197 Q 772 228 803 228 Q 772 228 772 259 Q 772 228 741 228 Q 772 228 772 197 Z" fill="#fff" opacity="0.67"/>
  <g opacity=".55" fill="none" stroke="#fff" stroke-width="4">
    <circle cx="960" cy="270" r="96"/><circle cx="960" cy="270" r="128"/>
  </g>
  <text x="600" y="600" text-anchor="middle" font-family="Cormorant Garamond, Georgia, serif"
        font-size="54" fill="#ffffff" opacity=".95" letter-spacing="10">Маникюр</text>
  <text x="600" y="620" text-anchor="middle" font-family="Nunito, Segoe UI, sans-serif"
        font-size="20" fill="#ffffff" opacity=".8" letter-spacing="8">1618 AVENUE</text>
</svg>